<svg width="56" height="57" viewBox="0 0 56 57" fill="none" xmlns="http://www.w3.org/2000/svg">
<rect y="0.5" width="56" height="56" rx="8" fill="#10AEFF" fill-opacity="0.14"/>
<g clip-path="url(#clip0_2915_7892)">
<path d="M39 34.5H24C22.346 34.5 21 33.154 21 31.5V20.5C21 18.294 19.206 16.5 17 16.5C16.448 16.5 16 16.947 16 17.5C16 18.053 16.448 18.5 17 18.5C18.103 18.5 19 19.397 19 20.5V31.5C19 33.546 20.236 35.309 22 36.082V37C22 38.93 23.57 40.5 25.5 40.5C27.43 40.5 29 38.93 29 37V36.5H32V37C32 38.93 33.57 40.5 35.5 40.5C37.43 40.5 39 38.93 39 37V36.5C39.552 36.5 40 36.053 40 35.5C40 34.947 39.552 34.5 39 34.5ZM27 37C27 37.827 26.327 38.5 25.5 38.5C24.673 38.5 24 37.827 24 37V36.5H27V37ZM37 37C37 37.827 36.327 38.5 35.5 38.5C34.673 38.5 34 37.827 34 37V36.5H37V37ZM38 25.5H25C23.897 25.5 23 26.397 23 27.5V30.5C23 31.603 23.897 32.5 25 32.5H38C39.103 32.5 40 31.603 40 30.5V27.5C40 26.397 39.103 25.5 38 25.5ZM38 30.5H25V27.5H38V30.5ZM25 23.5H28C29.103 23.5 30 22.603 30 21.5V18.5C30 17.397 29.103 16.5 28 16.5H25C23.897 16.5 23 17.397 23 18.5V21.5C23 22.603 23.897 23.5 25 23.5ZM25 18.5H28V21.5H25V18.5ZM38 17.5H34C32.897 17.5 32 18.397 32 19.5V21.5C32 22.603 32.897 23.5 34 23.5H38C39.103 23.5 40 22.603 40 21.5V19.5C40 18.397 39.103 17.5 38 17.5ZM34 21.5V19.5H38V21.5H34Z" fill="#10AEFF"/>
</g>
<defs>
<clipPath id="clip0_2915_7892">
<rect width="24" height="24" fill="white" transform="translate(16 16.5)"/>
</clipPath>
</defs>
</svg>
