<svg width="56" height="57" viewBox="0 0 56 57" fill="none" xmlns="http://www.w3.org/2000/svg">
<rect y="0.5" width="56" height="56" rx="8" fill="#10AEFF" fill-opacity="0.14"/>
<g clip-path="url(#clip0_2915_7900)">
<path d="M40 35.5C40 37.154 38.654 38.5 37 38.5V39.5C37 40.052 36.553 40.5 36 40.5C35.447 40.5 35 40.052 35 39.5V38.5H34.732C33.665 38.5 32.669 37.926 32.134 37.001C31.857 36.523 32.021 35.912 32.498 35.635C32.978 35.357 33.589 35.522 33.864 36C34.043 36.308 34.375 36.5 34.731 36.5H36.999C37.551 36.5 37.999 36.052 37.999 35.5C37.999 35.122 37.728 34.802 37.355 34.74L34.314 34.233C32.972 34.01 31.999 32.86 31.999 31.5C31.999 29.846 33.345 28.5 34.999 28.5V27.5C34.999 26.948 35.446 26.5 35.999 26.5C36.552 26.5 36.999 26.948 36.999 27.5V28.5H37.267C38.334 28.5 39.33 29.074 39.865 29.999C40.142 30.477 39.978 31.088 39.501 31.365C39.02 31.641 38.41 31.477 38.135 31C37.956 30.692 37.624 30.5 37.268 30.5H35C34.448 30.5 34 30.948 34 31.5C34 31.878 34.271 32.198 34.644 32.26L37.685 32.767C39.027 32.99 40 34.14 40 35.5ZM23 25.5C22.448 25.5 22 25.948 22 26.5V39.5C22 40.052 22.448 40.5 23 40.5C23.552 40.5 24 40.052 24 39.5V26.5C24 25.948 23.552 25.5 23 25.5ZM18 28.5C17.448 28.5 17 28.948 17 29.5V39.5C17 40.052 17.448 40.5 18 40.5C18.552 40.5 19 40.052 19 39.5V29.5C19 28.948 18.552 28.5 18 28.5ZM28 22.5C27.448 22.5 27 22.948 27 23.5V39.5C27 40.052 27.448 40.5 28 40.5C28.552 40.5 29 40.052 29 39.5V23.5C29 22.948 28.552 22.5 28 22.5ZM38 24.5C38.553 24.5 39 24.052 39 23.5V17.5C39 16.948 38.553 16.5 38 16.5C37.447 16.5 37 16.948 37 17.5V23.5C37 24.052 37.447 24.5 38 24.5ZM33 25.5C33.553 25.5 34 25.052 34 24.5V20.5C34 19.948 33.553 19.5 33 19.5C32.447 19.5 32 19.948 32 20.5V24.5C32 25.052 32.447 25.5 33 25.5Z" fill="#10AEFF"/>
</g>
<defs>
<clipPath id="clip0_2915_7900">
<rect width="24" height="24" fill="white" transform="translate(16 16.5)"/>
</clipPath>
</defs>
</svg>
