<svg width="56" height="57" viewBox="0 0 56 57" fill="none" xmlns="http://www.w3.org/2000/svg">
<rect y="0.5" width="56" height="56" rx="8" fill="#10AEFF" fill-opacity="0.14"/>
<g clip-path="url(#clip0_2915_7884)">
<path d="M27.696 28.218L25.834 30.023C25.516 30.341 25.094 30.501 24.671 30.501C24.244 30.501 23.815 30.338 23.488 30.012L22.807 29.358C22.409 28.975 22.396 28.342 22.779 27.944C23.162 27.546 23.796 27.534 24.193 27.916L24.666 28.371L26.304 26.783C26.7 26.4 27.333 26.408 27.718 26.805C28.102 27.201 28.093 27.833 27.696 28.218ZM32 33.5H29C28.448 33.5 28 33.948 28 34.5C28 35.052 28.448 35.5 29 35.5H32C32.552 35.5 33 35.052 33 34.5C33 33.948 32.552 33.5 32 33.5ZM32 21.5H29C28.448 21.5 28 21.948 28 22.5C28 23.052 28.448 23.5 29 23.5H32C32.552 23.5 33 23.052 33 22.5C33 21.948 32.552 21.5 32 21.5ZM32 27.5H30C29.448 27.5 29 27.948 29 28.5C29 29.052 29.448 29.5 30 29.5H32C32.552 29.5 33 29.052 33 28.5C33 27.948 32.552 27.5 32 27.5ZM24.5 33C23.672 33 23 33.672 23 34.5C23 35.328 23.672 36 24.5 36C25.328 36 26 35.328 26 34.5C26 33.672 25.328 33 24.5 33ZM24.5 24C25.328 24 26 23.328 26 22.5C26 21.672 25.328 21 24.5 21C23.672 21 23 21.672 23 22.5C23 23.328 23.672 24 24.5 24ZM38 21.5V35.5C38 38.257 35.757 40.5 33 40.5H23C20.243 40.5 18 38.257 18 35.5V21.5C18 18.743 20.243 16.5 23 16.5H33C35.757 16.5 38 18.743 38 21.5ZM36 21.5C36 19.846 34.654 18.5 33 18.5H23C21.346 18.5 20 19.846 20 21.5V35.5C20 37.154 21.346 38.5 23 38.5H33C34.654 38.5 36 37.154 36 35.5V21.5Z" fill="#10AEFF"/>
</g>
<defs>
<clipPath id="clip0_2915_7884">
<rect width="24" height="24" fill="white" transform="translate(16 16.5)"/>
</clipPath>
</defs>
</svg>
