<svg width="20" height="20" viewBox="0 0 20 20" fill="none" xmlns="http://www.w3.org/2000/svg">
<g clip-path="url(#clip0_2915_7832)">
<path d="M18.3333 4.77V1.66667C18.3333 1.20667 17.9608 0.833334 17.5 0.833334C17.0392 0.833334 16.6667 1.20667 16.6667 1.66667V3.63833L12.3308 0.7125C10.915 -0.2425 9.085 -0.2425 7.66917 0.7125L1.83583 4.64917C0.686667 5.425 0 6.71583 0 8.10333V15.8333C0 18.1308 1.86917 20 4.16667 20H5.83333C6.29417 20 6.66667 19.6267 6.66667 19.1667V11.6667C6.66667 11.2075 7.04 10.8333 7.5 10.8333H12.5C12.96 10.8333 13.3333 11.2075 13.3333 11.6667V19.1667C13.3333 19.6267 13.7058 20 14.1667 20H15.8333C18.1308 20 20 18.1308 20 15.8333V8.10333C20 6.78583 19.38 5.555 18.3333 4.77Z" fill="#10AEFF"/>
</g>
<defs>
<clipPath id="clip0_2915_7832">
<rect width="20" height="20" fill="white"/>
</clipPath>
</defs>
</svg>
