<svg width="40" height="40" viewBox="0 0 40 40" fill="none" xmlns="http://www.w3.org/2000/svg">
<rect y="0.00012207" width="40" height="40" rx="5" fill="#E84949" fill-opacity="0.18"/>
<rect x="0.5" y="0.500122" width="39" height="39" rx="4.5" stroke="#E84949" stroke-opacity="0.14"/>
<g clip-path="url(#clip0_2915_8068)">
<path d="M26.75 14.0001H24.425C24.2509 13.1537 23.7904 12.3931 23.1209 11.8467C22.4515 11.3002 21.6142 11.0012 20.75 11.0001L19.25 11.0001C18.3858 11.0012 17.5485 11.3002 16.8791 11.8467C16.2096 12.3931 15.7491 13.1537 15.575 14.0001H13.25C13.0511 14.0001 12.8603 14.0791 12.7197 14.2198C12.579 14.3604 12.5 14.5512 12.5 14.7501C12.5 14.949 12.579 15.1398 12.7197 15.2805C12.8603 15.4211 13.0511 15.5001 13.25 15.5001H14V25.2501C14.0012 26.2443 14.3967 27.1975 15.0997 27.9005C15.8027 28.6035 16.7558 28.9989 17.75 29.0001H22.25C23.2442 28.9989 24.1973 28.6035 24.9003 27.9005C25.6033 27.1975 25.9988 26.2443 26 25.2501V15.5001H26.75C26.9489 15.5001 27.1397 15.4211 27.2803 15.2805C27.421 15.1398 27.5 14.949 27.5 14.7501C27.5 14.5512 27.421 14.3604 27.2803 14.2198C27.1397 14.0791 26.9489 14.0001 26.75 14.0001ZM19.25 12.5001H20.75C21.2152 12.5007 21.6688 12.6452 22.0487 12.9137C22.4286 13.1823 22.7161 13.5617 22.8717 14.0001H17.1282C17.2839 13.5617 17.5714 13.1823 17.9513 12.9137C18.3312 12.6452 18.7848 12.5007 19.25 12.5001ZM24.5 25.2501C24.5 25.8469 24.2629 26.4192 23.841 26.8411C23.419 27.2631 22.8467 27.5001 22.25 27.5001H17.75C17.1533 27.5001 16.581 27.2631 16.159 26.8411C15.7371 26.4192 15.5 25.8469 15.5 25.2501V15.5001H24.5V25.2501Z" fill="#E84949"/>
<path d="M18.5 24.5001C18.6989 24.5001 18.8897 24.4211 19.0303 24.2805C19.171 24.1398 19.25 23.949 19.25 23.7501V19.2501C19.25 19.0512 19.171 18.8604 19.0303 18.7198C18.8897 18.5791 18.6989 18.5001 18.5 18.5001C18.3011 18.5001 18.1103 18.5791 17.9697 18.7198C17.829 18.8604 17.75 19.0512 17.75 19.2501V23.7501C17.75 23.949 17.829 24.1398 17.9697 24.2805C18.1103 24.4211 18.3011 24.5001 18.5 24.5001Z" fill="#E84949"/>
<path d="M21.5 24.5001C21.6989 24.5001 21.8897 24.4211 22.0303 24.2805C22.171 24.1398 22.25 23.949 22.25 23.7501V19.2501C22.25 19.0512 22.171 18.8604 22.0303 18.7198C21.8897 18.5791 21.6989 18.5001 21.5 18.5001C21.3011 18.5001 21.1103 18.5791 20.9697 18.7198C20.829 18.8604 20.75 19.0512 20.75 19.2501V23.7501C20.75 23.949 20.829 24.1398 20.9697 24.2805C21.1103 24.4211 21.3011 24.5001 21.5 24.5001Z" fill="#E84949"/>
</g>
<defs>
<clipPath id="clip0_2915_8068">
<rect width="18" height="18" fill="white" transform="translate(11 11.0001)"/>
</clipPath>
</defs>
</svg>
