<svg width="40" height="40" viewBox="0 0 40 40" fill="none" xmlns="http://www.w3.org/2000/svg">
<rect y="0.00012207" width="40" height="40" rx="4" fill="#E5C100" fill-opacity="0.18"/>
<rect x="0.5" y="0.500122" width="39" height="39" rx="3.5" stroke="#E5C100" stroke-opacity="0.14"/>
<g clip-path="url(#clip0_2915_8065)">
<path d="M28.1398 11.8611C27.6299 11.352 26.9388 11.066 26.2183 11.066C25.4977 11.066 24.8066 11.352 24.2968 11.8611L12.0988 24.0591C11.7494 24.4064 11.4725 24.8196 11.2839 25.2747C11.0953 25.7298 10.9988 26.2177 11 26.7103V28.2501C11 28.449 11.079 28.6398 11.2197 28.7804C11.3603 28.9211 11.5511 29.0001 11.75 29.0001H13.2898C13.7823 29.0015 14.2703 28.9052 14.7254 28.7167C15.1805 28.5282 15.5937 28.2513 15.941 27.9021L28.1398 15.7033C28.6486 15.1935 28.9344 14.5026 28.9344 13.7822C28.9344 13.0619 28.6486 12.3709 28.1398 11.8611ZM14.8805 26.8416C14.4575 27.2618 13.886 27.4984 13.2898 27.5001H12.5V26.7103C12.4993 26.4148 12.5571 26.122 12.6703 25.8489C12.7835 25.5759 12.9496 25.328 13.1593 25.1196L22.4165 15.8623L24.1415 17.5873L14.8805 26.8416ZM27.0785 14.6428L25.199 16.5231L23.474 14.8018L25.3543 12.9216C25.4675 12.8086 25.6019 12.719 25.7498 12.6579C25.8977 12.5968 26.0562 12.5655 26.2162 12.5657C26.3762 12.5658 26.5346 12.5975 26.6824 12.6589C26.8301 12.7203 26.9644 12.8102 27.0774 12.9235C27.1904 13.0367 27.28 13.1711 27.3411 13.319C27.4022 13.4669 27.4335 13.6254 27.4333 13.7854C27.4331 13.9454 27.4015 14.1038 27.3401 14.2516C27.2787 14.3993 27.1888 14.5336 27.0755 14.6466L27.0785 14.6428Z" fill="#E6C200"/>
</g>
<defs>
<clipPath id="clip0_2915_8065">
<rect width="18" height="18" fill="white" transform="translate(11 11.0001)"/>
</clipPath>
</defs>
</svg>
