<svg width="28" height="28" viewBox="0 0 28 28" fill="none" xmlns="http://www.w3.org/2000/svg">
<g clip-path="url(#clip0_2915_7825)">
<path d="M23.3333 12.8333H11.6667C9.093 12.8333 7 14.9263 7 17.5V22.1667C7 25.3832 9.61683 28 12.8333 28H22.1667C25.3832 28 28 25.3832 28 22.1667V17.5C28 14.9263 25.907 12.8333 23.3333 12.8333ZM22.1667 18.6667C22.1667 21.2403 20.0737 23.3333 17.5 23.3333C14.9263 23.3333 12.8333 21.2403 12.8333 18.6667V17.5C12.8333 16.8548 13.356 16.3333 14 16.3333C14.644 16.3333 15.1667 16.8548 15.1667 17.5V18.6667C15.1667 19.9535 16.2132 21 17.5 21C18.7868 21 19.8333 19.9535 19.8333 18.6667V17.5C19.8333 16.8548 20.356 16.3333 21 16.3333C21.644 16.3333 22.1667 16.8548 22.1667 17.5V18.6667ZM22.1667 10.5C22.1667 7.92633 20.0737 5.83333 17.5 5.83333H16.3333V5.25C16.3333 2.3555 13.9778 0 11.0833 0C8.18883 0 5.83333 2.3555 5.83333 5.25V5.83333H4.66667C2.093 5.83333 0 7.92633 0 10.5V16.3333C0 19.1497 2.00783 21.5075 4.66667 22.0488V17.5C4.66667 13.6395 7.80617 10.5 11.6667 10.5H22.1667ZM8.16667 5.25C8.16667 3.64117 9.47567 2.33333 11.0833 2.33333C12.691 2.33333 14 3.64117 14 5.25V5.83333H8.16667V5.25Z" fill="#10AEFF"/>
</g>
<defs>
<clipPath id="clip0_2915_7825">
<rect width="28" height="28" fill="white"/>
</clipPath>
</defs>
</svg>
