<svg width="20" height="20" viewBox="0 0 20 20" fill="none" xmlns="http://www.w3.org/2000/svg">
<g clip-path="url(#clip0_2915_7837)">
<path d="M19.1667 15H6.66667C5.28833 15 4.16667 13.8783 4.16667 12.5V3.33333C4.16667 1.495 2.67167 0 0.833333 0C0.373333 0 0 0.3725 0 0.833333C0 1.29417 0.373333 1.66667 0.833333 1.66667C1.7525 1.66667 2.5 2.41417 2.5 3.33333V12.5C2.5 14.205 3.53 15.6742 5 16.3183V17.0833C5 18.6917 6.30833 20 7.91667 20C9.525 20 10.8333 18.6917 10.8333 17.0833V16.6667H13.3333V17.0833C13.3333 18.6917 14.6417 20 16.25 20C17.8583 20 19.1667 18.6917 19.1667 17.0833V16.6667C19.6267 16.6667 20 16.2942 20 15.8333C20 15.3725 19.6267 15 19.1667 15ZM9.16667 17.0833C9.16667 17.7725 8.60583 18.3333 7.91667 18.3333C7.2275 18.3333 6.66667 17.7725 6.66667 17.0833V16.6667H9.16667V17.0833ZM17.5 17.0833C17.5 17.7725 16.9392 18.3333 16.25 18.3333C15.5608 18.3333 15 17.7725 15 17.0833V16.6667H17.5V17.0833ZM18.3333 7.5H7.5C6.58083 7.5 5.83333 8.2475 5.83333 9.16667V11.6667C5.83333 12.5858 6.58083 13.3333 7.5 13.3333H18.3333C19.2525 13.3333 20 12.5858 20 11.6667V9.16667C20 8.2475 19.2525 7.5 18.3333 7.5ZM18.3333 11.6667H7.5V9.16667H18.3333V11.6667ZM7.5 5.83333H10C10.9192 5.83333 11.6667 5.08583 11.6667 4.16667V1.66667C11.6667 0.7475 10.9192 0 10 0H7.5C6.58083 0 5.83333 0.7475 5.83333 1.66667V4.16667C5.83333 5.08583 6.58083 5.83333 7.5 5.83333ZM7.5 1.66667H10V4.16667H7.5V1.66667ZM18.3333 0.833333H15C14.0808 0.833333 13.3333 1.58083 13.3333 2.5V4.16667C13.3333 5.08583 14.0808 5.83333 15 5.83333H18.3333C19.2525 5.83333 20 5.08583 20 4.16667V2.5C20 1.58083 19.2525 0.833333 18.3333 0.833333ZM15 4.16667V2.5H18.3333V4.16667H15Z" fill="black" fill-opacity="0.65"/>
</g>
<defs>
<clipPath id="clip0_2915_7837">
<rect width="20" height="20" fill="white"/>
</clipPath>
</defs>
</svg>
