<svg width="20" height="20" viewBox="0 0 20 20" fill="none" xmlns="http://www.w3.org/2000/svg">
<g clip-path="url(#clip0_2915_7990)">
<path d="M18.3333 4.77003V1.66669C18.3333 1.20669 17.9608 0.83336 17.5 0.83336C17.0392 0.83336 16.6667 1.20669 16.6667 1.66669V3.63836L12.3308 0.712527C10.915 -0.242473 9.085 -0.242473 7.66917 0.712527L1.83583 4.64919C0.686667 5.42503 0 6.71586 0 8.10336V15.8334C0 18.1309 1.86917 20 4.16667 20H6.66667C7.1275 20 7.5 19.6267 7.5 19.1667V12.5C7.5 12.0409 7.87333 11.6667 8.33333 11.6667H11.6667C12.1267 11.6667 12.5 12.0409 12.5 12.5V19.1667C12.5 19.6267 12.8725 20 13.3333 20H15.8333C18.1308 20 20 18.1309 20 15.8334V8.10336C20 6.78586 19.38 5.55503 18.3333 4.77003ZM18.3333 15.8334C18.3333 17.2117 17.2117 18.3334 15.8333 18.3334H14.1667V12.5C14.1667 11.1217 13.045 10 11.6667 10H8.33333C6.955 10 5.83333 11.1217 5.83333 12.5V18.3334H4.16667C2.78833 18.3334 1.66667 17.2117 1.66667 15.8334V8.10336C1.66667 7.27086 2.07833 6.49586 2.76833 6.03086L8.60167 2.09419C9.45167 1.52086 10.5483 1.52086 11.3975 2.09419L17.2308 6.03086C17.9208 6.49586 18.3325 7.27086 18.3325 8.10336L18.3333 15.8334Z" fill="black" fill-opacity="0.65"/>
</g>
<defs>
<clipPath id="clip0_2915_7990">
<rect width="20" height="20" fill="white"/>
</clipPath>
</defs>
</svg>
