<svg width="20" height="20" viewBox="0 0 20 20" fill="none" xmlns="http://www.w3.org/2000/svg">
<g clip-path="url(#clip0_2915_7849)">
<path d="M19.1818 7.32084C18.686 6.86917 18.0518 6.63667 17.3743 6.66917C16.7043 6.7 16.0868 6.99084 15.6368 7.48667L12.956 10.4317C12.4968 9.67417 11.6635 9.16584 10.7151 9.16584H7.50098V8.3325H7.81431C9.02014 8.3325 10.001 7.35167 10.001 6.14584C10.001 5.0725 9.23181 4.165 8.17348 3.98917L5.43598 3.5325C5.18431 3.49084 5.00181 3.275 5.00181 3.01917C5.00181 2.7325 5.23514 2.49917 5.52181 2.49917H7.72514C8.02181 2.49917 8.29848 2.65917 8.44764 2.91584C8.67681 3.31417 9.18514 3.45084 9.58598 3.22C9.98431 2.98917 10.121 2.48 9.88931 2.08167C9.44431 1.31084 8.61431 0.83167 7.72431 0.83167H7.50098C7.50098 0.37167 7.12848 -0.00166321 6.66764 -0.00166321C6.20681 -0.00166321 5.83431 0.37167 5.83431 0.83167H5.52098C4.31514 0.83167 3.33431 1.8125 3.33431 3.01834C3.33431 4.09167 4.10348 4.99917 5.16181 5.175L7.89931 5.63167C8.15098 5.67334 8.33348 5.88917 8.33348 6.145C8.33348 6.43167 8.10014 6.665 7.81348 6.665H5.61014C5.31348 6.665 5.03681 6.505 4.88764 6.24834C4.65848 5.84917 4.14931 5.7125 3.74931 5.94417C3.35098 6.175 3.21431 6.68417 3.44598 7.0825C3.89098 7.85334 4.72098 8.33167 5.61098 8.33167H5.83431V9.165H3.33431C1.49598 9.165 0.000976562 10.66 0.000976562 12.4983V16.665C0.000976562 18.5033 1.49598 19.9983 3.33431 19.9983H7.47181C9.84681 19.9983 12.1135 18.9817 13.6943 17.2083L19.3643 10.8442C20.276 9.82334 20.1943 8.24167 19.1826 7.31917L19.1818 7.32084ZM18.1193 9.73667L12.4485 16.1017C11.1843 17.52 9.37098 18.3333 7.47098 18.3333H3.33348C2.41431 18.3333 1.66681 17.5858 1.66681 16.6667V12.5C1.66681 11.5808 2.41431 10.8333 3.33348 10.8333H10.7143C11.2393 10.8333 11.6668 11.26 11.6668 11.785C11.6668 12.255 11.3151 12.6608 10.8501 12.7275L6.54931 13.3417C6.09348 13.4067 5.77681 13.8283 5.84181 14.2842C5.90681 14.7392 6.32848 15.0525 6.78514 14.9908L11.086 14.3767C12.0651 14.2367 12.8593 13.5533 13.181 12.6617L16.8701 8.6075C17.021 8.44084 17.2285 8.34417 17.4526 8.33334C17.6785 8.3275 17.8926 8.40167 18.0593 8.55167C18.3985 8.86167 18.426 9.3925 18.1193 9.73584V9.73667ZM10.8343 3.34667C10.8343 2.88667 11.2068 2.51334 11.6676 2.51334H15.0643L13.9893 1.41667C13.6668 1.0875 13.6718 0.560003 14.001 0.237503C14.3285 -0.0833299 14.8576 -0.0799965 15.1793 0.24917L16.9935 2.1C17.3193 2.425 17.501 2.86417 17.501 3.3325C17.501 3.80084 17.3185 4.24084 16.9876 4.57167L15.1793 6.41584C15.0168 6.5825 14.8001 6.66584 14.5843 6.66584C14.3735 6.66584 14.1626 6.58667 14.001 6.4275C13.6718 6.105 13.6676 5.5775 13.9893 5.24834L15.0376 4.17834H11.6676C11.2068 4.17834 10.8343 3.805 10.8343 3.345V3.34667Z" fill="black" fill-opacity="0.65"/>
</g>
<defs>
<clipPath id="clip0_2915_7849">
<rect width="20" height="20" fill="white"/>
</clipPath>
</defs>
</svg>
