<svg width="20" height="20" viewBox="0 0 20 20" fill="none" xmlns="http://www.w3.org/2000/svg">
<g clip-path="url(#clip0_2915_9411)">
<path d="M19.1818 7.32055C18.686 6.86888 18.0518 6.63638 17.3743 6.66888C16.7043 6.69971 16.0868 6.99055 15.6368 7.48638L12.956 10.4314C12.4968 9.67388 11.6635 9.16555 10.7151 9.16555H7.50098V8.33221H7.81431C9.02014 8.33221 10.001 7.35138 10.001 6.14555C10.001 5.07221 9.23181 4.16471 8.17348 3.98888L5.43598 3.53221C5.18431 3.49055 5.00181 3.27471 5.00181 3.01888C5.00181 2.73221 5.23514 2.49888 5.52181 2.49888H7.72514C8.02181 2.49888 8.29848 2.65888 8.44764 2.91555C8.67681 3.31388 9.18514 3.45055 9.58598 3.21971C9.98431 2.98888 10.121 2.47971 9.88931 2.08138C9.44431 1.31055 8.61431 0.83138 7.72431 0.83138H7.50098C7.50098 0.37138 7.12848 -0.00195312 6.66764 -0.00195312C6.20681 -0.00195312 5.83431 0.37138 5.83431 0.83138H5.52098C4.31514 0.83138 3.33431 1.81221 3.33431 3.01805C3.33431 4.09138 4.10348 4.99888 5.16181 5.17471L7.89931 5.63138C8.15098 5.67305 8.33348 5.88888 8.33348 6.14471C8.33348 6.43138 8.10014 6.66471 7.81348 6.66471H5.61014C5.31348 6.66471 5.03681 6.50471 4.88764 6.24805C4.65848 5.84888 4.14931 5.71221 3.74931 5.94388C3.35098 6.17471 3.21431 6.68388 3.44598 7.08221C3.89098 7.85305 4.72098 8.33138 5.61098 8.33138H5.83431V9.16471H3.33431C1.49598 9.16471 0.000976562 10.6597 0.000976562 12.498V16.6647C0.000976562 18.503 1.49598 19.998 3.33431 19.998H7.47181C9.84681 19.998 12.1135 18.9814 13.6943 17.208L19.3643 10.8439C20.276 9.82305 20.1943 8.24138 19.1826 7.31888L19.1818 7.32055ZM18.1193 9.73638L12.4485 16.1014C11.1843 17.5197 9.37098 18.333 7.47098 18.333H3.33348C2.41431 18.333 1.66681 17.5855 1.66681 16.6664V12.4997C1.66681 11.5805 2.41431 10.833 3.33348 10.833H10.7143C11.2393 10.833 11.6668 11.2597 11.6668 11.7847C11.6668 12.2547 11.3151 12.6605 10.8501 12.7272L6.54931 13.3414C6.09348 13.4064 5.77681 13.828 5.84181 14.2839C5.90681 14.7389 6.32848 15.0522 6.78514 14.9905L11.086 14.3764C12.0651 14.2364 12.8593 13.553 13.181 12.6614L16.8701 8.60721C17.021 8.44055 17.2285 8.34388 17.4526 8.33305C17.6785 8.32721 17.8926 8.40138 18.0593 8.55138C18.3985 8.86138 18.426 9.39221 18.1193 9.73555V9.73638ZM10.8343 3.34638C10.8343 2.88638 11.2068 2.51305 11.6676 2.51305H15.0643L13.9893 1.41638C13.6668 1.08721 13.6718 0.559714 14.001 0.237214C14.3285 -0.0836198 14.8576 -0.0802865 15.1793 0.24888L16.9935 2.09971C17.3193 2.42471 17.501 2.86388 17.501 3.33221C17.501 3.80055 17.3185 4.24055 16.9876 4.57138L15.1793 6.41555C15.0168 6.58221 14.8001 6.66555 14.5843 6.66555C14.3735 6.66555 14.1626 6.58638 14.001 6.42721C13.6718 6.10471 13.6676 5.57721 13.9893 5.24805L15.0376 4.17805H11.6676C11.2068 4.17805 10.8343 3.80471 10.8343 3.34471V3.34638Z" fill="#10AEFF"/>
</g>
<defs>
<clipPath id="clip0_2915_9411">
<rect width="20" height="20" fill="white"/>
</clipPath>
</defs>
</svg>
