<svg width="20" height="20" viewBox="0 0 20 20" fill="none" xmlns="http://www.w3.org/2000/svg">
<g clip-path="url(#clip0_2915_7872)">
<path d="M18.516 14.5198L16.32 6.59827C15.8787 5.00477 14.9168 3.60476 13.5877 2.62125C12.2585 1.63775 10.6384 1.12731 8.98552 1.17124C7.33263 1.21518 5.74197 1.81096 4.46692 2.86368C3.19187 3.91641 2.30577 5.36554 1.94975 6.98023L0.251713 14.6194C0.188054 14.9061 0.189587 15.2034 0.256197 15.4894C0.322807 15.7753 0.452795 16.0427 0.636564 16.2717C0.820332 16.5007 1.05319 16.6855 1.31795 16.8125C1.5827 16.9395 1.87259 17.0054 2.16622 17.0053H5.41564C5.66523 17.8685 6.18853 18.6272 6.90671 19.1671C7.6249 19.707 8.49909 19.999 9.3976 19.999C10.2961 19.999 11.1703 19.707 11.8885 19.1671C12.6067 18.6272 13.13 17.8685 13.3796 17.0053H16.6274C16.9297 17.0054 17.2279 16.9355 17.4987 16.8012C17.7695 16.6669 18.0056 16.4718 18.1885 16.2312C18.3714 15.9905 18.4963 15.7108 18.5532 15.414C18.6102 15.1171 18.5969 14.8111 18.516 14.5198ZM2.65485 14.6524L4.24701 7.48611C4.49087 6.38499 5.09606 5.39709 5.96626 4.67967C6.83646 3.96225 7.92164 3.55655 9.04905 3.52715C10.1765 3.49775 11.2813 3.84633 12.1877 4.51742C13.0941 5.1885 13.75 6.14351 14.0509 7.23043L16.1121 14.6524H2.65485Z" fill="black" fill-opacity="0.5"/>
</g>
<circle cx="15.2938" cy="4.70588" r="4.70588" fill="#10AEFF"/>
<defs>
<clipPath id="clip0_2915_7872">
<rect width="18.8235" height="18.8235" fill="white" transform="translate(0 1.17632)"/>
</clipPath>
</defs>
</svg>
