<svg width="20" height="20" viewBox="0 0 20 20" fill="none" xmlns="http://www.w3.org/2000/svg">
<path d="M7.5 10C10.2575 10 12.5 7.7575 12.5 5C12.5 2.2425 10.2575 0 7.5 0C4.7425 0 2.5 2.2425 2.5 5C2.5 7.7575 4.7425 10 7.5 10ZM7.5 1.66667C9.33833 1.66667 10.8333 3.16167 10.8333 5C10.8333 6.83833 9.33833 8.33333 7.5 8.33333C5.66167 8.33333 4.16667 6.83833 4.16667 5C4.16667 3.16167 5.66167 1.66667 7.5 1.66667ZM17.9167 11.6667H12.9167C11.7683 11.6667 10.8333 12.6008 10.8333 13.75V20H20V13.75C20 12.6008 19.065 11.6667 17.9167 11.6667ZM18.3333 18.3333H12.5V13.75C12.5 13.5208 12.6867 13.3333 12.9167 13.3333H17.9167C18.1467 13.3333 18.3333 13.5208 18.3333 13.75V18.3333ZM14.1667 14.1667H16.6667V15.8333H14.1667V14.1667ZM7.5 14.9958L9.16667 13.1208V15.6292L7.5 17.5042L3.81417 13.3575C2.60167 13.5292 1.66667 14.5742 1.66667 15.8333V20H0V15.8333C0 13.5358 1.86917 11.6667 4.16667 11.6667H4.54083L7.5 14.9958Z" fill="black" fill-opacity="0.65"/>
</svg>
